# xmcd
#
# Track frame offsets:
#	150
#	12330
#	24787
#	39502
#	53812
#	67814
#	81569
#	94716
#	108193
#	124490
#	137240
#	151475
#	163872
#	177102
#
# Disc length: 2551 seconds
#
# Revision: 0
# Processed by: cddbd v1.5.2PL0 Copyright (c) Steve Scherf et al.
# Submitted via: EasyCDDAExtractor 16.0.6.1
#
DISCID=b209f50e
DTITLE=Βογιατζής Γιάννης - Τα ωραιότερά μου τραγούδια-Γ. Βογιατζής
DYEAR=1900
DGENRE=Ελαφρολαϊκή
TTITLE0=Πέταξ' ένα πουλί [Κώστας Κλάββας-Αλέξ. Αλεξόπουλος]
TTITLE1=Εσένα [Γιάννης Σπάρτακος-Αλέκος Λιδωρίκης]
TTITLE2=Μελαχροινή κυρά μου [Γιώργος Μουζάκης-Νίκος Παρρησιάδης]
TTITLE3=Ήλιε μου, γυιέ της χαραυγής [Γιώρ. Κουρουπός-Κ. Παλιμεντάκης]
TTITLE4=Ποια μάτια σε κοιτάζουνε [Λυκουργος Μαρκέας]
TTITLE5=Όλοι ζηλεύουνε τον έρωτά μας [Σπύρ. Πιπεράκης-Κώσ. Μάνεσης]
TTITLE6=Τι ωραία που είσαι [Λυκούργος Μαρκέας]
TTITLE7=Πιο πάνω από τα σύννεφα [Άκης Σμυρναίος-Γιώρ. Οικονομίδης]
TTITLE8=Διπλός γλυκός καϋμός [Γιώργος Μουζάκης-Γ. Γιαννακόπουλος]
TTITLE9=Φεγγάρι π' αλητεύεις [Σ. Καμενίδης]
TTITLE10=Τι [Γ. Μουζάκης, Ναπ. Ελευθερίου, Λ. Μιχαηλίδης]
TTITLE11=Για σένα την αγάπη μου [Μάνος Χατζιδάκις]
TTITLE12=Εκείνη [Τόλης Βοσκόπουλος-Ηλ. Λυμπερόπουλος]
TTITLE13=Όνειρα, όνειρα [Λυκούργος Μαρκέας-Θάνος Σοφός]
EXTD=
EXTT0=
EXTT1=
EXTT2=
EXTT3=
EXTT4=
EXTT5=
EXTT6=
EXTT7=
EXTT8=
EXTT9=
EXTT10=
EXTT11=
EXTT12=
EXTT13=
PLAYORDER=
